<svg width="60" height="63" viewBox="0 0 60 63" fill="none" xmlns="http://www.w3.org/2000/svg">
<path d="M11.484 29.512H16.056L18.936 37.972L21.816 29.512H26.424L22.068 41.14L25.308 49.312L32.544 29.44H37.944L27.54 55H23.364L18.936 44.272L14.508 55H10.332L0 29.44H5.328L12.6 49.312L15.768 41.14L11.484 29.512Z" fill="white"/>
<path d="M33.484 8.512H38.056L40.936 16.972L43.816 8.512H48.424L44.068 20.14L47.308 28.312L54.544 8.44H59.944L49.54 34H45.364L40.936 23.272L36.508 34H32.332L22 8.44H27.328L34.6 28.312L37.768 20.14L33.484 8.512Z" fill="white"/>
</svg>
